<?xml version="1.0" encoding="UTF-8"?>
<svg id="Layer_1" data-name="Layer 1" xmlns="http://www.w3.org/2000/svg" viewBox="0 0 207 55.07">
  <defs>
    <style>
      .cls-1 {
        fill: #121314;
      }
      .cls-2 {
        fill: #006E51;
      }
    </style>
  </defs>
  <g>
    <path class="cls-1" d="m6.5,47.64c-.06-.54-.32-.97-.77-1.29-.46-.32-1.03-.48-1.72-.48-.49,0-.92.08-1.29.23-.37.15-.66.37-.87.64-.21.27-.31.58-.31.93,0,.26.06.48.18.67.12.19.28.36.48.49.2.14.43.25.68.35.25.1.5.18.75.25l1.1.29c.33.09.67.19,1,.33.33.13.64.3.92.5.28.2.5.44.67.73.17.29.25.64.25,1.04,0,.52-.15.98-.43,1.4-.29.41-.71.74-1.25.98-.54.24-1.19.36-1.95.36-.71,0-1.33-.11-1.86-.33s-.94-.52-1.24-.91c-.3-.39-.47-.84-.51-1.35h.98c.03.38.17.71.41.97.24.27.55.47.93.6.38.14.81.21,1.28.21.52,0,.99-.08,1.39-.24.41-.16.73-.39.96-.68.23-.29.35-.63.35-1.02,0-.33-.09-.6-.28-.83-.18-.22-.44-.41-.77-.56-.33-.15-.71-.29-1.14-.4l-1.25-.34c-.82-.23-1.46-.54-1.91-.94-.45-.4-.68-.91-.68-1.53,0-.52.15-.98.45-1.37.3-.4.71-.71,1.23-.93.52-.22,1.1-.33,1.74-.33s1.23.11,1.73.33c.5.22.9.52,1.19.91.29.39.45.83.47,1.32h-.93Z"/>
    <path class="cls-1" d="m29.41,54.91v-9.69h6.08v.8h-5.12v3.65h4.8v.8h-4.8v3.66h5.22v.8h-6.18Z"/>
    <path class="cls-1" d="m65.71,48.24h-.96c-.07-.33-.2-.64-.39-.92-.19-.28-.42-.53-.7-.74-.28-.21-.6-.38-.95-.49-.35-.12-.74-.18-1.15-.18-.66,0-1.26.16-1.81.48-.54.32-.98.79-1.3,1.4-.33.62-.49,1.37-.49,2.26s.16,1.66.49,2.27c.33.62.76,1.08,1.3,1.4.54.32,1.15.48,1.81.48.41,0,.8-.06,1.15-.18.35-.12.67-.28.95-.49.28-.21.51-.46.7-.74.19-.28.31-.59.39-.92h.96c-.09.44-.24.86-.48,1.24-.23.38-.53.72-.89,1.01-.36.29-.77.51-1.24.67-.47.16-.98.24-1.54.24-.88,0-1.66-.2-2.34-.61-.68-.41-1.22-.99-1.6-1.73-.39-.74-.58-1.62-.58-2.64s.19-1.89.58-2.64c.39-.74.92-1.32,1.6-1.73.68-.41,1.46-.61,2.34-.61.56,0,1.07.08,1.54.24.47.16.88.38,1.24.67.36.29.66.62.89,1.01.23.38.39.8.48,1.24Z"/>
    <path class="cls-1" d="m94.48,45.21h.96v6.42c0,.66-.17,1.25-.5,1.77-.33.52-.8.93-1.39,1.23-.59.3-1.29.45-2.07.45s-1.47-.15-2.07-.45c-.6-.3-1.06-.71-1.4-1.23-.33-.52-.5-1.11-.5-1.77v-6.42h.96v6.36c0,.51.12.97.37,1.37.25.4.6.72,1.05.95s.98.35,1.59.35,1.14-.12,1.59-.35c.45-.23.8-.55,1.05-.95.25-.4.37-.86.37-1.37v-6.36Z"/>
    <path class="cls-1" d="m117.76,54.91v-9.69h3.38c.74,0,1.36.12,1.86.37s.88.59,1.13,1.03c.25.44.38.94.38,1.5s-.13,1.06-.38,1.5-.63.77-1.13,1.01c-.5.24-1.11.36-1.85.36h-2.88v-.81h2.85c.55,0,1-.08,1.36-.25.36-.17.63-.41.81-.71.18-.31.27-.68.27-1.1s-.09-.79-.27-1.11c-.18-.32-.45-.56-.82-.74-.36-.17-.82-.26-1.37-.26h-2.4v8.9h-.96Zm4.62-4.37l2.58,4.37h-1.1l-2.55-4.37h1.08Z"/>
    <path class="cls-1" d="m147.35,45.21v9.69h-.96v-9.69h.96Z"/>
    <path class="cls-1" d="m169.04,46.01v-.8h7.59v.8h-3.32v8.9h-.96v-8.9h-3.32Z"/>
    <path class="cls-1" d="m197.34,45.21h1.1l3.1,4.6h.09l3.1-4.6h1.1l-3.78,5.5v4.2h-.95v-4.2l-3.78-5.5Z"/>
  </g>
  <path class="cls-1" d="m0,.6h7.99l9.4,14.57L26.8.6h7.94v32.12h-7.94V15l-9.4,14.51L7.99,15v17.72H0V.6Z"/>
  <path class="cls-1" d="m38.55,16.69C38.55,6.79,45.89,0,55.67,0s17.07,6.79,17.07,16.69-7.28,16.69-17.07,16.69-17.12-6.79-17.12-16.69Zm7.94,0c0,5.38,3.64,9.68,9.18,9.68s9.13-4.3,9.13-9.68-3.53-9.68-9.13-9.68-9.18,4.29-9.18,9.68Z"/>
  <path class="cls-1" d="m72.46.6h8.75l7.61,21.69L96.38.6h8.75l-12.34,32.12h-7.99L72.46.6Z"/>
  <path class="cls-1" d="m107.74.6h24.35v7.01h-16.36v5.49h15.38v6.58h-15.38v6.03h16.96v7.01h-24.95V.6Z"/>
  <path class="cls-1" d="m178.9.6h7.93l12.23,18.21V.6h7.94v32.12h-7.94l-12.23-18.21v18.21h-7.93V.6Z"/>
  <g>
    <path class="cls-2" d="m153.57,16.69c0,2.71,1.48,5.07,3.67,6.33,1.35.77,2.16,2.22,2.16,3.77-4.47-.64-8-4.17-8.64-8.64-.07-.48-.1-.96-.1-1.46V3.58c0-1.61,1.3-2.91,2.91-2.91v1.75c1.78-.91,3.74-1.5,5.83-1.68,0,1.57-1,2.98-2.5,3.46-1.19.38-2.31.92-3.32,1.6v3.77s0,0,0-.01c1.52-1.56,3.55-2.62,5.81-2.95,0,0,.02,0,.02.01,0,1.54-.81,2.98-2.14,3.74-2.2,1.25-3.68,3.62-3.68,6.33Z"/>
    <path class="cls-2" d="m159.4,32.64s0,.02-.02.01c-6.68-.61-12.18-5.32-13.95-11.59-.39-1.39-.6-2.86-.6-4.37V3.6s0-.01.01-.01h0c1.6,0,2.9,1.3,2.9,2.9v10.21c0,5.86,3.84,10.81,9.14,12.5,1.5.48,2.52,1.87,2.52,3.45h0Z"/>
    <path class="cls-2" d="m176.88,29.81h0c-1.61,0-2.91-1.3-2.91-2.91v-10.2c0-5.85-3.83-10.8-9.12-12.49-1.51-.48-2.53-1.88-2.53-3.47h0c6.69.6,12.19,5.31,13.97,11.59.39,1.39.6,2.86.6,4.37v13.11Z"/>
    <path class="cls-2" d="m171.05,16.69v13.11c0,1.61-1.3,2.91-2.91,2.91v-1.76s0,.01,0,.01c-1.77.9-3.73,1.49-5.8,1.68,0,0-.02,0-.02-.01v-1.17c0-.95.65-1.8,1.57-2.02,1.53-.36,2.96-.99,4.23-1.84.01,0,.02,0,.02.01v-3.8s0,0,0,.01c-1.52,1.56-3.55,2.63-5.81,2.95-.01,0-.02,0-.02-.01,0-1.54.81-2.98,2.14-3.74,2.2-1.25,3.68-3.62,3.68-6.33s-1.48-5.07-3.67-6.33c-1.35-.77-2.16-2.22-2.16-3.77,1.72.25,3.3.92,4.63,1.91,1.33.99,2.41,2.3,3.13,3.81.63,1.33.98,2.81.98,4.37Z"/>
    <path class="cls-2" d="m160.86,23.98h0c-.8,0-1.46-.65-1.46-1.46v-.78c0-.53-.29-1-.74-1.27-1.3-.76-2.17-2.17-2.17-3.78,0-1.9,1.22-3.52,2.91-4.12.46-.16.95-.25,1.46-.25s1,.09,1.46.25c1.7.6,2.91,2.22,2.91,4.12,0,1.61-.87,3.02-2.17,3.78-.45.27-.74.74-.74,1.27v.78c0,.8-.65,1.46-1.46,1.46h0Z"/>
    <path class="cls-2" d="m162.31,6.5h-1.46s-1.46,0-1.46,0v-1.46c0-.8.65-1.46,1.46-1.46h0s0,0,0,0c.81,0,1.46.65,1.46,1.46v1.46Z"/>
    <path class="cls-2" d="m160.86,29.81h0c-.8,0-1.46-.65-1.46-1.46v-1.46s1.46,0,1.46,0h1.46s0,1.45,0,1.45c0,.81-.65,1.46-1.46,1.46h0Z"/>
  </g>
</svg>