<svg width="250" height="50" viewBox="0 0 250 50" fill="none" xmlns="http://www.w3.org/2000/svg">
<g clip-path="url(#clip0_2602_99)">
<path d="M27.1955 5.45363C29.3043 2.38631 32.8392 0 38.7541 0C49.9724 0 54.3922 8.45296 54.3922 14.3848V34.7002H46.233V14.5898C46.233 9.74922 42.6969 7.56799 38.7541 7.56799C34.8112 7.56799 31.2751 9.74922 31.2751 14.5898V34.7002H23.1159V14.5898C23.1159 9.74922 19.5799 7.56799 15.637 7.56799C11.6941 7.56799 8.1581 9.74922 8.1581 14.5898V34.7002H0V14.3848C0 8.45296 4.41976 0 15.6381 0C21.553 0 25.089 2.38631 27.1966 5.45363H27.1955Z" fill="#32BC81"/>
<path d="M76.4877 0.135986C87.0257 0.135986 94.0289 7.15783 94.0289 17.656C94.0289 28.1543 87.0257 35.3121 76.4877 35.3121C65.9496 35.3121 58.8787 28.2223 58.8787 17.656C58.8787 7.08984 65.9496 0.135986 76.4877 0.135986ZM76.4199 27.8132C82.1313 27.8132 85.8708 24.0638 85.8708 17.724C85.8708 11.3843 82.1313 7.63487 76.4199 7.63487C70.7084 7.63487 67.0368 11.3843 67.0368 17.724C67.0368 24.0638 70.7762 27.8132 76.4199 27.8132Z" fill="#32BC81"/>
<path d="M94.3012 0.613007H103.072L111.367 23.7238L119.661 0.613007H128.432L115.582 34.6991H107.151L94.3012 0.613007Z" fill="#32BC81"/>
<path d="M154.065 24.1329H162.971C160.728 31.0187 154.676 35.3132 146.449 35.3132C135.911 35.3132 128.84 28.2234 128.84 17.6572C128.84 7.09096 135.911 0.135986 146.45 0.135986C156.989 0.135986 163.991 7.15783 163.991 17.656C163.991 18.6101 163.924 19.4962 163.856 20.3834H137.272C138.155 25.0869 141.555 27.8143 146.382 27.8143C149.782 27.8143 152.434 26.5192 154.066 24.1329H154.065ZM154.948 12.8845C153.521 9.54414 150.461 7.63487 146.381 7.63487C142.302 7.63487 139.31 9.54414 137.883 12.8845H154.948Z" fill="#32BC81"/>
<path d="M196.695 0.135986C207.233 0.135986 214.236 7.15783 214.236 17.656C214.236 28.1543 207.233 35.3121 196.695 35.3121C186.157 35.3121 179.086 28.2223 179.086 17.656C179.086 7.08984 186.156 0.135986 196.695 0.135986ZM196.627 27.8132C202.339 27.8132 206.078 24.0638 206.078 17.724C206.078 11.3843 202.339 7.63487 196.627 7.63487C190.916 7.63487 187.244 11.3843 187.244 17.724C187.244 24.0638 190.983 27.8132 196.627 27.8132Z" fill="#32BC81"/>
<path d="M249.999 14.3848V34.7002H241.84V14.5898C241.84 9.74922 238.304 7.56799 234.361 7.56799C230.418 7.56799 226.882 9.74922 226.882 14.5898V34.7002H218.723V14.3848C218.723 8.45408 223.142 0 234.361 0C245.579 0 249.999 8.45296 249.999 14.3848Z" fill="#32BC81"/>
<path d="M0 41.323V40.0524H7.55228V41.323H4.50758V49.8373H3.04025V41.323H0Z" fill="#32BC81"/>
<path d="M23.3171 49.8373V40.0524H29.4354V41.323H24.79V44.3045H29.1164V45.5707H24.79V48.5667H29.4932V49.8373H23.3183H23.3171Z" fill="#32BC81"/>
<path d="M53.6163 43.2345H52.1301C52.0734 42.9157 51.9667 42.636 51.811 42.3941C51.6554 42.1523 51.4653 41.9472 51.2397 41.7778C51.014 41.6095 50.7628 41.4813 50.4849 41.3955C50.207 41.3096 49.9124 41.2662 49.6011 41.2662C49.0387 41.2662 48.5362 41.4077 48.0927 41.6908C47.6492 41.9739 47.3001 42.3897 47.0444 42.938C46.7888 43.4864 46.6609 44.1552 46.6609 44.9443C46.6609 45.7334 46.7888 46.4122 47.0444 46.9605C47.3001 47.5089 47.6503 47.9224 48.0949 48.2022C48.5396 48.4819 49.0398 48.6224 49.5956 48.6224C49.9035 48.6224 50.197 48.58 50.4749 48.4953C50.7528 48.4106 51.004 48.2858 51.2297 48.1208C51.4553 47.9548 51.6465 47.7519 51.8044 47.5112C51.9611 47.2704 52.07 46.994 52.1312 46.6819L53.6174 46.6864C53.5385 47.1679 53.3851 47.6092 53.1572 48.0116C52.9304 48.4151 52.6392 48.7617 52.2857 49.0526C51.9311 49.3435 51.5276 49.5698 51.0729 49.7292C50.6183 49.8885 50.1225 49.9677 49.5867 49.9677C48.7419 49.9677 47.9893 49.7659 47.3279 49.3636C46.6676 48.9612 46.1474 48.3839 45.7672 47.6315C45.387 46.8803 45.1981 45.9831 45.1981 44.942C45.1981 43.901 45.3881 43.0005 45.7694 42.2503C46.1507 41.5002 46.6721 40.924 47.3323 40.5205C47.9926 40.1181 48.7441 39.9164 49.5867 39.9164C50.1047 39.9164 50.5883 39.99 51.0373 40.1382C51.4864 40.2865 51.8911 40.5027 52.2501 40.788C52.6092 41.0733 52.906 41.42 53.1416 41.829C53.3762 42.2381 53.5351 42.7062 53.6185 43.2312L53.6163 43.2345Z" fill="#32BC81"/>
<path d="M69.4812 49.8373V40.0524H70.9541V44.3045H75.8196V40.0524H77.2969V49.8373H75.8196V45.5707H70.9541V49.8373H69.4812Z" fill="#32BC81"/>
<path d="M116.521 42.6226C116.47 42.1701 116.261 41.819 115.892 41.5693C115.523 41.3197 115.059 41.1948 114.5 41.1948C114.1 41.1948 113.753 41.2573 113.462 41.3832C113.17 41.5092 112.943 41.6808 112.783 41.8993C112.623 42.1177 112.542 42.3652 112.542 42.6427C112.542 42.8756 112.596 43.0763 112.706 43.2446C112.816 43.4129 112.961 43.5544 113.14 43.667C113.319 43.7796 113.512 43.8743 113.719 43.949C113.926 44.0236 114.123 44.0849 114.315 44.1329L115.267 44.3814C115.579 44.4583 115.898 44.5609 116.226 44.6924C116.552 44.8228 116.856 44.9956 117.136 45.2084C117.415 45.4213 117.642 45.6866 117.815 46.002C117.989 46.3175 118.075 46.6953 118.075 47.1344C118.075 47.6884 117.933 48.181 117.648 48.6113C117.364 49.0415 116.953 49.3803 116.415 49.6289C115.876 49.8774 115.226 50.0011 114.464 50.0011C113.701 50.0011 113.101 49.8852 112.567 49.6523C112.034 49.4193 111.616 49.0894 111.314 48.6614C111.012 48.2334 110.845 47.724 110.814 47.1344H112.292C112.32 47.4878 112.435 47.782 112.637 48.0161C112.838 48.2501 113.097 48.424 113.414 48.5366C113.73 48.6491 114.077 48.706 114.456 48.706C114.872 48.706 115.243 48.6402 115.569 48.5076C115.894 48.375 116.151 48.1911 116.338 47.9536C116.526 47.7162 116.619 47.4387 116.619 47.1199C116.619 46.8302 116.537 46.5928 116.373 46.4077C116.21 46.2227 115.989 46.07 115.711 45.9496C115.433 45.8282 115.119 45.7223 114.769 45.6298L113.617 45.3143C112.835 45.1014 112.216 44.7871 111.76 44.3736C111.304 43.9601 111.077 43.4117 111.077 42.7296C111.077 42.1656 111.229 41.6741 111.533 41.2528C111.838 40.8326 112.252 40.5049 112.772 40.2709C113.293 40.0368 113.88 39.9198 114.535 39.9198C115.19 39.9198 115.779 40.0357 116.286 40.2686C116.792 40.5016 117.192 40.8203 117.484 41.2261C117.776 41.6318 117.929 42.0977 117.941 42.6237H116.521V42.6226Z" fill="#32BC81"/>
<path d="M133.936 49.8373V40.0524H140.054V41.323H135.409V44.3045H139.735V45.5707H135.409V48.5667H140.112V49.8373H133.937H133.936Z" fill="#32BC81"/>
<path d="M156.129 49.8373V40.0524H159.607C160.363 40.0524 160.991 40.1828 161.491 40.4447C161.992 40.7055 162.366 41.0667 162.613 41.527C162.861 41.9873 162.984 42.5178 162.984 43.1208C162.984 43.7238 162.86 44.2454 162.611 44.7002C162.362 45.1538 161.986 45.5071 161.486 45.7579C160.986 46.0098 160.358 46.1358 159.602 46.1358H156.967V44.8651H159.468C159.945 44.8651 160.333 44.7972 160.633 44.6601C160.933 44.523 161.153 44.3246 161.294 44.0627C161.434 43.8018 161.504 43.4875 161.504 43.1219C161.504 42.7564 161.432 42.432 161.291 42.1612C161.15 41.8903 160.929 41.683 160.629 41.5381C160.329 41.3932 159.935 41.3208 159.449 41.3208H157.601V49.8395H156.128L156.129 49.8373ZM160.947 45.4224L163.358 49.8373H161.68L159.317 45.4224H160.947Z" fill="#32BC81"/>
<path d="M179.494 40.0524L182.21 48.0216H182.32L185.035 40.0524H186.627L183.116 49.8373H181.415L177.903 40.0524H179.495H179.494Z" fill="#32BC81"/>
<path d="M203.608 40.0524V49.8373H202.135V40.0524H203.608Z" fill="#32BC81"/>
<path d="M227.959 43.2345H226.473C226.416 42.9157 226.309 42.636 226.154 42.3941C225.998 42.1523 225.808 41.9472 225.582 41.7778C225.357 41.6095 225.105 41.4813 224.828 41.3955C224.55 41.3096 224.255 41.2662 223.944 41.2662C223.381 41.2662 222.879 41.4077 222.435 41.6908C221.992 41.9739 221.643 42.3897 221.387 42.938C221.131 43.4864 221.004 44.1552 221.004 44.9443C221.004 45.7334 221.131 46.4122 221.387 46.9605C221.643 47.5089 221.993 47.9224 222.438 48.2022C222.882 48.4819 223.383 48.6224 223.938 48.6224C224.246 48.6224 224.54 48.58 224.818 48.4953C225.095 48.4106 225.348 48.2858 225.572 48.1208C225.798 47.9548 225.989 47.7519 226.147 47.5112C226.304 47.2704 226.413 46.994 226.474 46.6819L227.96 46.6864C227.88 47.1679 227.728 47.6092 227.5 48.0116C227.273 48.4151 226.982 48.7617 226.628 49.0526C226.275 49.3435 225.87 49.5698 225.416 49.7292C224.961 49.8885 224.465 49.9677 223.929 49.9677C223.085 49.9677 222.332 49.7659 221.671 49.3636C221.009 48.9612 220.49 48.3839 220.11 47.6315C219.73 46.8803 219.541 45.9831 219.541 44.942C219.541 43.901 219.732 43.0005 220.112 42.2503C220.493 41.5002 221.014 40.924 221.675 40.5205C222.335 40.1181 223.087 39.9164 223.929 39.9164C224.447 39.9164 224.931 39.99 225.38 40.1382C225.829 40.2865 226.234 40.5027 226.593 40.788C226.952 41.0733 227.249 41.42 227.484 41.829C227.719 42.2381 227.878 42.7062 227.961 43.2312L227.959 43.2345Z" fill="#32BC81"/>
<path d="M243.825 49.8373V40.0524H249.943V41.323H245.298V44.3045H249.624V45.5707H245.298V48.5667H250.001V49.8373H243.826H243.825Z" fill="#32BC81"/>
</g>
<defs>
<clipPath id="clip0_2602_99">
<rect width="250" height="50" fill="white"/>
</clipPath>
</defs>
</svg>
