<?xml version="1.0" encoding="UTF-8"?>
<svg xmlns="http://www.w3.org/2000/svg" xmlns:xlink="http://www.w3.org/1999/xlink" width="230px" height="61px" viewBox="0 0 229 61" version="1.1">
<g id="surface1">
<path style=" stroke:none;fill-rule:nonzero;fill:rgb(7.058824%,7.450981%,7.843138%);fill-opacity:1;" d="M 7.328125 52.769531 C 7.261719 52.171875 6.972656 51.695312 6.476562 51.339844 C 5.96875 50.988281 5.339844 50.808594 4.574219 50.808594 C 4.035156 50.808594 3.558594 50.898438 3.152344 51.0625 C 2.742188 51.230469 2.421875 51.472656 2.191406 51.773438 C 1.957031 52.070312 1.847656 52.414062 1.847656 52.804688 C 1.847656 53.089844 1.914062 53.335938 2.046875 53.546875 C 2.179688 53.753906 2.355469 53.945312 2.578125 54.089844 C 2.796875 54.242188 3.050781 54.363281 3.328125 54.476562 C 3.605469 54.585938 3.878906 54.675781 4.15625 54.753906 L 5.371094 55.074219 C 5.734375 55.171875 6.113281 55.285156 6.476562 55.4375 C 6.839844 55.582031 7.183594 55.773438 7.492188 55.992188 C 7.800781 56.214844 8.046875 56.480469 8.234375 56.800781 C 8.421875 57.125 8.507812 57.511719 8.507812 57.953125 C 8.507812 58.53125 8.34375 59.039062 8.035156 59.503906 C 7.714844 59.957031 7.25 60.324219 6.652344 60.589844 C 6.054688 60.855469 5.339844 60.988281 4.5 60.988281 C 3.714844 60.988281 3.027344 60.867188 2.445312 60.625 C 1.859375 60.378906 1.40625 60.046875 1.074219 59.617188 C 0.742188 59.183594 0.554688 58.683594 0.511719 58.121094 L 1.59375 58.121094 C 1.625 58.539062 1.78125 58.90625 2.046875 59.195312 C 2.3125 59.492188 2.652344 59.714844 3.074219 59.859375 C 3.492188 60.015625 3.96875 60.089844 4.488281 60.089844 C 5.0625 60.089844 5.582031 60.003906 6.023438 59.824219 C 6.476562 59.648438 6.828125 59.394531 7.085938 59.074219 C 7.339844 58.75 7.472656 58.375 7.472656 57.941406 C 7.472656 57.578125 7.371094 57.277344 7.160156 57.023438 C 6.960938 56.78125 6.675781 56.570312 6.3125 56.402344 C 5.945312 56.238281 5.527344 56.082031 5.050781 55.960938 L 3.671875 55.582031 C 2.765625 55.328125 2.058594 54.984375 1.558594 54.542969 C 1.0625 54.097656 0.808594 53.535156 0.808594 52.847656 C 0.808594 52.269531 0.972656 51.761719 1.304688 51.328125 C 1.636719 50.886719 2.089844 50.542969 2.664062 50.300781 C 3.238281 50.054688 3.878906 49.933594 4.585938 49.933594 C 5.292969 49.933594 5.945312 50.054688 6.5 50.300781 C 7.050781 50.542969 7.492188 50.875 7.8125 51.308594 C 8.132812 51.738281 8.3125 52.226562 8.332031 52.769531 L 7.304688 52.769531 Z M 7.328125 52.769531 "/>
<path style=" stroke:none;fill-rule:nonzero;fill:rgb(7.058824%,7.450981%,7.843138%);fill-opacity:1;" d="M 32.640625 60.824219 L 32.640625 50.089844 L 39.359375 50.089844 L 39.359375 50.976562 L 33.699219 50.976562 L 33.699219 55.019531 L 39.003906 55.019531 L 39.003906 55.90625 L 33.699219 55.90625 L 33.699219 59.957031 L 39.46875 59.957031 L 39.46875 60.84375 L 32.640625 60.84375 Z M 32.640625 60.824219 "/>
<path style=" stroke:none;fill-rule:nonzero;fill:rgb(7.058824%,7.450981%,7.843138%);fill-opacity:1;" d="M 72.746094 53.433594 L 71.6875 53.433594 C 71.609375 53.070312 71.464844 52.726562 71.253906 52.414062 C 71.046875 52.105469 70.792969 51.828125 70.480469 51.597656 C 70.171875 51.363281 69.820312 51.175781 69.433594 51.054688 C 69.046875 50.921875 68.613281 50.855469 68.160156 50.855469 C 67.433594 50.855469 66.769531 51.03125 66.160156 51.386719 C 65.566406 51.738281 65.078125 52.261719 64.726562 52.9375 C 64.359375 53.621094 64.183594 54.453125 64.183594 55.4375 C 64.183594 56.425781 64.359375 57.277344 64.726562 57.953125 C 65.089844 58.640625 65.566406 59.148438 66.160156 59.503906 C 66.757812 59.859375 67.433594 60.035156 68.160156 60.035156 C 68.613281 60.035156 69.046875 59.96875 69.433594 59.835938 C 69.820312 59.703125 70.171875 59.527344 70.480469 59.292969 C 70.792969 59.0625 71.046875 58.785156 71.253906 58.472656 C 71.464844 58.164062 71.597656 57.820312 71.6875 57.457031 L 72.746094 57.457031 C 72.648438 57.941406 72.480469 58.40625 72.214844 58.828125 C 71.960938 59.25 71.632812 59.625 71.234375 59.949219 C 70.835938 60.269531 70.382812 60.511719 69.863281 60.691406 C 69.34375 60.867188 68.78125 60.957031 68.160156 60.957031 C 67.1875 60.957031 66.328125 60.734375 65.578125 60.28125 C 64.824219 59.824219 64.226562 59.183594 63.808594 58.363281 C 63.378906 57.542969 63.167969 56.570312 63.167969 55.4375 C 63.167969 54.308594 63.378906 53.347656 63.808594 52.515625 C 64.238281 51.695312 64.824219 51.054688 65.578125 50.597656 C 66.328125 50.144531 67.1875 49.921875 68.160156 49.921875 C 68.78125 49.921875 69.34375 50.011719 69.863281 50.1875 C 70.382812 50.367188 70.835938 50.609375 71.234375 50.929688 C 71.632812 51.253906 71.960938 51.617188 72.214844 52.050781 C 72.46875 52.472656 72.648438 52.9375 72.746094 53.421875 Z M 72.746094 53.433594 "/>
<path style=" stroke:none;fill-rule:nonzero;fill:rgb(7.058824%,7.450981%,7.843138%);fill-opacity:1;" d="M 104.535156 50.078125 L 105.59375 50.078125 L 105.59375 57.191406 C 105.59375 57.921875 105.40625 58.574219 105.042969 59.148438 C 104.675781 59.726562 104.160156 60.179688 103.507812 60.511719 C 102.855469 60.84375 102.082031 61.011719 101.21875 61.011719 C 100.359375 61.011719 99.59375 60.84375 98.933594 60.511719 C 98.269531 60.179688 97.761719 59.726562 97.386719 59.148438 C 97.019531 58.574219 96.832031 57.921875 96.832031 57.191406 L 96.832031 50.078125 L 97.894531 50.078125 L 97.894531 57.125 C 97.894531 57.6875 98.027344 58.199219 98.300781 58.640625 C 98.578125 59.082031 98.964844 59.4375 99.460938 59.691406 C 99.960938 59.949219 100.546875 60.082031 101.21875 60.082031 C 101.894531 60.082031 102.480469 59.949219 102.976562 59.691406 C 103.472656 59.4375 103.859375 59.082031 104.136719 58.640625 C 104.414062 58.199219 104.546875 57.6875 104.546875 57.125 L 104.546875 50.078125 Z M 104.535156 50.078125 "/>
<path style=" stroke:none;fill-rule:nonzero;fill:rgb(7.058824%,7.450981%,7.843138%);fill-opacity:1;" d="M 130.253906 60.824219 L 130.253906 50.089844 L 133.988281 50.089844 C 134.808594 50.089844 135.492188 50.222656 136.046875 50.5 C 136.597656 50.777344 137.015625 51.152344 137.292969 51.640625 C 137.570312 52.128906 137.714844 52.679688 137.714844 53.300781 C 137.714844 53.921875 137.570312 54.476562 137.292969 54.964844 C 137.015625 55.449219 136.597656 55.816406 136.046875 56.082031 C 135.492188 56.347656 134.820312 56.480469 134 56.480469 L 130.820312 56.480469 L 130.820312 55.582031 L 133.96875 55.582031 C 134.574219 55.582031 135.074219 55.496094 135.46875 55.304688 C 135.867188 55.117188 136.167969 54.851562 136.367188 54.519531 C 136.5625 54.175781 136.664062 53.765625 136.664062 53.300781 C 136.664062 52.835938 136.5625 52.425781 136.367188 52.070312 C 136.167969 51.71875 135.867188 51.453125 135.460938 51.253906 C 135.0625 51.0625 134.554688 50.964844 133.945312 50.964844 L 131.292969 50.964844 L 131.292969 60.824219 L 130.234375 60.824219 Z M 135.359375 55.980469 L 138.210938 60.824219 L 136.996094 60.824219 L 134.179688 55.980469 L 135.371094 55.980469 Z M 135.359375 55.980469 "/>
<path style=" stroke:none;fill-rule:nonzero;fill:rgb(7.058824%,7.450981%,7.843138%);fill-opacity:1;" d="M 162.949219 50.078125 L 162.949219 60.8125 L 161.886719 60.8125 L 161.886719 50.078125 Z M 162.949219 50.078125 "/>
<path style=" stroke:none;fill-rule:nonzero;fill:rgb(7.058824%,7.450981%,7.843138%);fill-opacity:1;" d="M 186.914062 50.964844 L 186.914062 50.078125 L 195.300781 50.078125 L 195.300781 50.964844 L 191.632812 50.964844 L 191.632812 60.824219 L 190.570312 60.824219 L 190.570312 50.964844 L 186.902344 50.964844 Z M 186.914062 50.964844 "/>
<path style=" stroke:none;fill-rule:nonzero;fill:rgb(7.058824%,7.450981%,7.843138%);fill-opacity:1;" d="M 218.179688 50.078125 L 219.398438 50.078125 L 222.820312 55.171875 L 222.921875 55.171875 L 226.347656 50.078125 L 227.5625 50.078125 L 223.386719 56.171875 L 223.386719 60.824219 L 222.335938 60.824219 L 222.335938 56.171875 L 218.160156 50.078125 Z M 218.179688 50.078125 "/>
<path style=" stroke:none;fill-rule:nonzero;fill:rgb(7.058824%,7.450981%,7.843138%);fill-opacity:1;" d="M 0.144531 0.664062 L 8.972656 0.664062 L 19.359375 16.804688 L 29.757812 0.664062 L 38.527344 0.664062 L 38.527344 36.242188 L 29.757812 36.242188 L 29.757812 16.613281 L 19.371094 32.6875 L 8.972656 16.613281 L 8.972656 36.242188 L 0.144531 36.242188 Z M 0.144531 0.664062 "/>
<path style=" stroke:none;fill-rule:nonzero;fill:rgb(7.058824%,7.450981%,7.843138%);fill-opacity:1;" d="M 42.738281 18.488281 C 42.738281 7.519531 50.847656 0 61.652344 0 C 72.460938 0 80.515625 7.519531 80.515625 18.488281 C 80.515625 29.453125 72.46875 36.972656 61.652344 36.972656 C 50.835938 36.972656 42.738281 29.453125 42.738281 18.488281 Z M 51.511719 18.488281 C 51.511719 24.445312 55.53125 29.210938 61.652344 29.210938 C 67.773438 29.210938 71.742188 24.445312 71.742188 18.488281 C 71.742188 12.527344 67.839844 7.765625 61.652344 7.765625 C 55.464844 7.765625 51.511719 12.515625 51.511719 18.488281 Z M 51.511719 18.488281 "/>
<path style=" stroke:none;fill-rule:nonzero;fill:rgb(7.058824%,7.450981%,7.843138%);fill-opacity:1;" d="M 80.203125 0.664062 L 89.871094 0.664062 L 98.28125 24.691406 L 106.632812 0.664062 L 116.300781 0.664062 L 102.667969 36.242188 L 93.839844 36.242188 Z M 80.203125 0.664062 "/>
<path style=" stroke:none;fill-rule:nonzero;fill:rgb(7.058824%,7.450981%,7.843138%);fill-opacity:1;" d="M 119.183594 0.664062 L 146.089844 0.664062 L 146.089844 8.429688 L 128.011719 8.429688 L 128.011719 14.511719 L 145.003906 14.511719 L 145.003906 21.800781 L 128.011719 21.800781 L 128.011719 28.476562 L 146.75 28.476562 L 146.75 36.242188 L 119.183594 36.242188 Z M 119.183594 0.664062 "/>
<path style=" stroke:none;fill-rule:nonzero;fill:rgb(7.058824%,7.450981%,7.843138%);fill-opacity:1;" d="M 197.808594 0.664062 L 206.570312 0.664062 L 220.082031 20.835938 L 220.082031 0.664062 L 228.855469 0.664062 L 228.855469 36.242188 L 220.082031 36.242188 L 206.570312 16.074219 L 206.570312 36.242188 L 197.808594 36.242188 Z M 197.808594 0.664062 "/>
<path style=" stroke:none;fill-rule:nonzero;fill:rgb(0%,43.137255%,31.764707%);fill-opacity:1;" d="M 169.820312 18.488281 C 169.820312 21.488281 171.457031 24.101562 173.875 25.5 C 175.367188 26.351562 176.261719 27.957031 176.261719 29.675781 C 171.324219 28.964844 167.421875 25.054688 166.714844 20.105469 C 166.640625 19.574219 166.605469 19.042969 166.605469 18.488281 L 166.605469 3.964844 C 166.605469 2.183594 168.042969 0.742188 169.820312 0.742188 L 169.820312 2.679688 C 171.789062 1.671875 173.953125 1.019531 176.261719 0.820312 C 176.261719 2.558594 175.15625 4.121094 173.5 4.652344 C 172.183594 5.074219 170.949219 5.671875 169.832031 6.425781 L 169.832031 10.601562 C 169.832031 10.601562 169.832031 10.601562 169.832031 10.589844 C 171.511719 8.863281 173.753906 7.6875 176.25 7.320312 C 176.25 7.320312 176.273438 7.320312 176.273438 7.332031 C 176.273438 9.039062 175.378906 10.632812 173.910156 11.476562 C 171.476562 12.859375 169.84375 15.484375 169.84375 18.488281 Z M 169.820312 18.488281 "/>
<path style=" stroke:none;fill-rule:nonzero;fill:rgb(0%,43.137255%,31.764707%);fill-opacity:1;" d="M 176.261719 36.15625 C 176.261719 36.15625 176.261719 36.175781 176.242188 36.164062 C 168.859375 35.488281 162.78125 30.273438 160.828125 23.328125 C 160.394531 21.789062 160.164062 20.160156 160.164062 18.488281 L 160.164062 3.988281 C 160.164062 3.988281 160.164062 3.976562 160.175781 3.976562 C 161.941406 3.976562 163.378906 5.417969 163.378906 7.1875 L 163.378906 18.5 C 163.378906 24.988281 167.621094 30.472656 173.476562 32.34375 C 175.136719 32.875 176.261719 34.414062 176.261719 36.164062 Z M 176.261719 36.15625 "/>
<path style=" stroke:none;fill-rule:nonzero;fill:rgb(0%,43.137255%,31.764707%);fill-opacity:1;" d="M 195.574219 33.019531 C 193.796875 33.019531 192.359375 31.578125 192.359375 29.796875 L 192.359375 18.5 C 192.359375 12.019531 188.128906 6.535156 182.285156 4.664062 C 180.617188 4.132812 179.488281 2.582031 179.488281 0.820312 C 186.878906 1.484375 192.957031 6.703125 194.921875 13.65625 C 195.355469 15.199219 195.585938 16.824219 195.585938 18.5 L 195.585938 33.019531 Z M 195.574219 33.019531 "/>
<path style=" stroke:none;fill-rule:nonzero;fill:rgb(0%,43.137255%,31.764707%);fill-opacity:1;" d="M 189.132812 18.488281 L 189.132812 33.007812 C 189.132812 34.792969 187.699219 36.230469 185.917969 36.230469 L 185.917969 34.28125 C 185.917969 34.28125 185.917969 34.292969 185.917969 34.292969 C 183.964844 35.289062 181.796875 35.945312 179.511719 36.15625 C 179.511719 36.15625 179.488281 36.15625 179.488281 36.144531 L 179.488281 34.847656 C 179.488281 33.796875 180.207031 32.855469 181.222656 32.609375 C 182.914062 32.210938 184.492188 31.511719 185.898438 30.570312 C 185.90625 30.570312 185.917969 30.570312 185.917969 30.582031 L 185.917969 26.375 C 185.917969 26.375 185.917969 26.375 185.917969 26.386719 C 184.238281 28.113281 181.996094 29.296875 179.5 29.652344 C 179.488281 29.652344 179.476562 29.652344 179.476562 29.640625 C 179.476562 27.9375 180.371094 26.339844 181.84375 25.5 C 184.273438 24.113281 185.90625 21.488281 185.90625 18.488281 C 185.90625 15.484375 184.273438 12.871094 181.851562 11.476562 C 180.363281 10.621094 179.464844 9.015625 179.464844 7.300781 C 181.367188 7.578125 183.113281 8.320312 184.582031 9.414062 C 186.050781 10.511719 187.246094 11.964844 188.039062 13.636719 C 188.738281 15.109375 189.125 16.75 189.125 18.476562 Z M 189.132812 18.488281 "/>
<path style=" stroke:none;fill-rule:nonzero;fill:rgb(0%,43.137255%,31.764707%);fill-opacity:1;" d="M 177.875 26.5625 C 176.992188 26.5625 176.261719 25.84375 176.261719 24.945312 L 176.261719 24.082031 C 176.261719 23.492188 175.941406 22.972656 175.445312 22.675781 C 174.007812 21.832031 173.046875 20.269531 173.046875 18.488281 C 173.046875 16.382812 174.394531 14.589844 176.261719 13.921875 C 176.769531 13.746094 177.3125 13.648438 177.875 13.648438 C 178.4375 13.648438 178.980469 13.746094 179.488281 13.921875 C 181.367188 14.589844 182.703125 16.382812 182.703125 18.488281 C 182.703125 20.269531 181.742188 21.832031 180.304688 22.675781 C 179.808594 22.972656 179.488281 23.492188 179.488281 24.082031 L 179.488281 24.945312 C 179.488281 25.832031 178.769531 26.5625 177.875 26.5625 Z M 177.875 26.5625 "/>
<path style=" stroke:none;fill-rule:nonzero;fill:rgb(0%,43.137255%,31.764707%);fill-opacity:1;" d="M 179.476562 7.199219 L 177.863281 7.199219 C 177.863281 7.199219 176.25 7.199219 176.25 7.199219 L 176.25 5.582031 C 176.25 4.695312 176.96875 3.964844 177.863281 3.964844 C 178.757812 3.964844 179.476562 4.683594 179.476562 5.582031 Z M 179.476562 7.199219 "/>
<path style=" stroke:none;fill-rule:nonzero;fill:rgb(0%,43.137255%,31.764707%);fill-opacity:1;" d="M 177.875 33.019531 C 176.992188 33.019531 176.261719 32.300781 176.261719 31.402344 L 176.261719 29.785156 C 176.261719 29.785156 177.875 29.785156 177.875 29.785156 L 179.488281 29.785156 C 179.488281 29.785156 179.488281 31.390625 179.488281 31.390625 C 179.488281 32.289062 178.769531 33.007812 177.875 33.007812 Z M 177.875 33.019531 "/>
</g>
</svg>
