<?xml version="1.0" encoding="UTF-8"?>
<svg xmlns="http://www.w3.org/2000/svg" xmlns:xlink="http://www.w3.org/1999/xlink" width="230px" height="46px" viewBox="0 0 230 46" version="1.1">
<g id="surface1">
<path style=" stroke:none;fill-rule:nonzero;fill:rgb(19.607843%,73.725492%,50.588238%);fill-opacity:1;" d="M 25.019531 5.015625 C 26.960938 2.195312 30.210938 0 35.652344 0 C 45.972656 0 50.039062 7.777344 50.039062 13.234375 L 50.039062 31.925781 L 42.535156 31.925781 L 42.535156 13.421875 C 42.535156 8.96875 39.28125 6.960938 35.652344 6.960938 C 32.027344 6.960938 28.773438 8.96875 28.773438 13.421875 L 28.773438 31.925781 L 21.265625 31.925781 L 21.265625 13.421875 C 21.265625 8.96875 18.011719 6.960938 14.386719 6.960938 C 10.757812 6.960938 7.503906 8.96875 7.503906 13.421875 L 7.503906 31.925781 L 0 31.925781 L 0 13.234375 C 0 7.777344 4.066406 0 14.386719 0 C 19.828125 0 23.082031 2.195312 25.019531 5.015625 Z M 25.019531 5.015625 "/>
<path style=" stroke:none;fill-rule:nonzero;fill:rgb(19.607843%,73.725492%,50.588238%);fill-opacity:1;" d="M 70.367188 0.125 C 80.0625 0.125 86.507812 6.585938 86.507812 16.242188 C 86.507812 25.902344 80.0625 32.488281 70.367188 32.488281 C 60.671875 32.488281 54.167969 25.964844 54.167969 16.242188 C 54.167969 6.523438 60.671875 0.125 70.367188 0.125 Z M 70.304688 25.589844 C 75.5625 25.589844 79 22.140625 79 16.304688 C 79 10.472656 75.5625 7.023438 70.304688 7.023438 C 65.050781 7.023438 61.675781 10.472656 61.675781 16.304688 C 61.675781 22.140625 65.113281 25.589844 70.304688 25.589844 Z M 70.304688 25.589844 "/>
<path style=" stroke:none;fill-rule:nonzero;fill:rgb(19.607843%,73.725492%,50.588238%);fill-opacity:1;" d="M 86.757812 0.5625 L 94.828125 0.5625 L 102.457031 21.824219 L 110.089844 0.5625 L 118.15625 0.5625 L 106.335938 31.921875 L 98.578125 31.921875 Z M 86.757812 0.5625 "/>
<path style=" stroke:none;fill-rule:nonzero;fill:rgb(19.607843%,73.725492%,50.588238%);fill-opacity:1;" d="M 141.738281 22.203125 L 149.933594 22.203125 C 147.871094 28.539062 142.300781 32.488281 134.734375 32.488281 C 125.039062 32.488281 118.53125 25.964844 118.53125 16.246094 C 118.53125 6.523438 125.039062 0.125 134.734375 0.125 C 144.429688 0.125 150.871094 6.585938 150.871094 16.242188 C 150.871094 17.121094 150.808594 17.9375 150.746094 18.753906 L 126.289062 18.753906 C 127.101562 23.078125 130.230469 25.589844 134.671875 25.589844 C 137.800781 25.589844 140.238281 24.398438 141.742188 22.203125 Z M 142.550781 11.855469 C 141.238281 8.78125 138.425781 7.023438 134.671875 7.023438 C 130.917969 7.023438 128.164062 8.78125 126.851562 11.855469 Z M 142.550781 11.855469 "/>
<path style=" stroke:none;fill-rule:nonzero;fill:rgb(19.607843%,73.725492%,50.588238%);fill-opacity:1;" d="M 180.960938 0.125 C 190.65625 0.125 197.097656 6.585938 197.097656 16.242188 C 197.097656 25.902344 190.65625 32.488281 180.960938 32.488281 C 171.265625 32.488281 164.757812 25.964844 164.757812 16.242188 C 164.757812 6.523438 171.261719 0.125 180.960938 0.125 Z M 180.898438 25.589844 C 186.152344 25.589844 189.589844 22.140625 189.589844 16.304688 C 189.589844 10.472656 186.152344 7.023438 180.898438 7.023438 C 175.644531 7.023438 172.265625 10.472656 172.265625 16.304688 C 172.265625 22.140625 175.703125 25.589844 180.898438 25.589844 Z M 180.898438 25.589844 "/>
<path style=" stroke:none;fill-rule:nonzero;fill:rgb(19.607843%,73.725492%,50.588238%);fill-opacity:1;" d="M 230 13.234375 L 230 31.925781 L 222.492188 31.925781 L 222.492188 13.421875 C 222.492188 8.96875 219.238281 6.960938 215.613281 6.960938 C 211.984375 6.960938 208.730469 8.96875 208.730469 13.421875 L 208.730469 31.925781 L 201.226562 31.925781 L 201.226562 13.234375 C 201.226562 7.777344 205.289062 0 215.613281 0 C 225.933594 0 230 7.777344 230 13.234375 Z M 230 13.234375 "/>
<path style=" stroke:none;fill-rule:nonzero;fill:rgb(19.607843%,73.725492%,50.588238%);fill-opacity:1;" d="M 0 38.015625 L 0 36.847656 L 6.949219 36.847656 L 6.949219 38.015625 L 4.148438 38.015625 L 4.148438 45.851562 L 2.796875 45.851562 L 2.796875 38.015625 Z M 0 38.015625 "/>
<path style=" stroke:none;fill-rule:nonzero;fill:rgb(19.607843%,73.725492%,50.588238%);fill-opacity:1;" d="M 21.453125 45.851562 L 21.453125 36.847656 L 27.082031 36.847656 L 27.082031 38.015625 L 22.808594 38.015625 L 22.808594 40.761719 L 26.785156 40.761719 L 26.785156 41.925781 L 22.808594 41.925781 L 22.808594 44.679688 L 27.132812 44.679688 L 27.132812 45.851562 Z M 21.453125 45.851562 "/>
<path style=" stroke:none;fill-rule:nonzero;fill:rgb(19.607843%,73.725492%,50.588238%);fill-opacity:1;" d="M 49.328125 39.777344 L 47.960938 39.777344 C 47.90625 39.484375 47.808594 39.226562 47.667969 39.003906 C 47.523438 38.78125 47.347656 38.589844 47.140625 38.4375 C 46.933594 38.28125 46.703125 38.164062 46.445312 38.082031 C 46.191406 38.003906 45.917969 37.964844 45.632812 37.964844 C 45.117188 37.964844 44.652344 38.09375 44.246094 38.355469 C 43.835938 38.617188 43.515625 39 43.28125 39.503906 C 43.046875 40.007812 42.929688 40.621094 42.929688 41.347656 C 42.929688 42.074219 43.046875 42.699219 43.28125 43.203125 C 43.515625 43.707031 43.839844 44.089844 44.246094 44.347656 C 44.65625 44.601562 45.117188 44.734375 45.628906 44.734375 C 45.910156 44.734375 46.179688 44.695312 46.4375 44.617188 C 46.691406 44.539062 46.921875 44.421875 47.132812 44.269531 C 47.339844 44.117188 47.515625 43.933594 47.660156 43.710938 C 47.804688 43.488281 47.90625 43.234375 47.960938 42.949219 L 49.328125 42.953125 C 49.253906 43.394531 49.113281 43.800781 48.90625 44.171875 C 48.695312 44.542969 48.429688 44.859375 48.101562 45.128906 C 47.777344 45.394531 47.40625 45.605469 46.988281 45.75 C 46.570312 45.898438 46.113281 45.96875 45.621094 45.96875 C 44.84375 45.96875 44.148438 45.785156 43.542969 45.414062 C 42.933594 45.042969 42.457031 44.511719 42.105469 43.820312 C 41.757812 43.128906 41.582031 42.304688 41.582031 41.347656 C 41.582031 40.390625 41.757812 39.558594 42.109375 38.871094 C 42.457031 38.179688 42.9375 37.648438 43.546875 37.277344 C 44.152344 36.910156 44.84375 36.722656 45.621094 36.722656 C 46.097656 36.722656 46.542969 36.789062 46.953125 36.925781 C 47.367188 37.0625 47.738281 37.261719 48.070312 37.523438 C 48.402344 37.789062 48.671875 38.105469 48.890625 38.484375 C 49.105469 38.859375 49.253906 39.289062 49.328125 39.773438 Z M 49.328125 39.777344 "/>
<path style=" stroke:none;fill-rule:nonzero;fill:rgb(19.607843%,73.725492%,50.588238%);fill-opacity:1;" d="M 63.921875 45.851562 L 63.921875 36.847656 L 65.277344 36.847656 L 65.277344 40.761719 L 69.753906 40.761719 L 69.753906 36.847656 L 71.113281 36.847656 L 71.113281 45.851562 L 69.753906 45.851562 L 69.753906 41.925781 L 65.277344 41.925781 L 65.277344 45.851562 Z M 63.921875 45.851562 "/>
<path style=" stroke:none;fill-rule:nonzero;fill:rgb(19.607843%,73.725492%,50.588238%);fill-opacity:1;" d="M 107.199219 39.210938 C 107.152344 38.796875 106.960938 38.472656 106.621094 38.242188 C 106.28125 38.015625 105.855469 37.898438 105.339844 37.898438 C 104.972656 37.898438 104.652344 37.957031 104.386719 38.074219 C 104.117188 38.1875 103.90625 38.347656 103.761719 38.546875 C 103.613281 38.75 103.539062 38.976562 103.539062 39.230469 C 103.539062 39.445312 103.589844 39.628906 103.691406 39.785156 C 103.789062 39.941406 103.925781 40.070312 104.089844 40.171875 C 104.253906 40.277344 104.429688 40.363281 104.621094 40.433594 C 104.8125 40.5 104.992188 40.558594 105.167969 40.601562 L 106.046875 40.832031 C 106.332031 40.902344 106.625 40.996094 106.929688 41.117188 C 107.226562 41.238281 107.507812 41.394531 107.765625 41.589844 C 108.023438 41.789062 108.230469 42.03125 108.390625 42.320312 C 108.550781 42.613281 108.628906 42.960938 108.628906 43.363281 C 108.628906 43.875 108.5 44.328125 108.234375 44.722656 C 107.976562 45.117188 107.597656 45.429688 107.101562 45.660156 C 106.605469 45.886719 106.007812 46 105.308594 46 C 104.605469 46 104.054688 45.894531 103.5625 45.679688 C 103.070312 45.464844 102.6875 45.164062 102.410156 44.769531 C 102.132812 44.375 101.976562 43.90625 101.949219 43.363281 L 103.308594 43.363281 C 103.335938 43.6875 103.441406 43.960938 103.625 44.175781 C 103.8125 44.390625 104.050781 44.550781 104.339844 44.652344 C 104.632812 44.757812 104.949219 44.808594 105.300781 44.808594 C 105.683594 44.808594 106.023438 44.75 106.324219 44.628906 C 106.621094 44.503906 106.859375 44.335938 107.03125 44.117188 C 107.203125 43.898438 107.289062 43.644531 107.289062 43.351562 C 107.289062 43.082031 107.214844 42.867188 107.0625 42.695312 C 106.914062 42.523438 106.710938 42.382812 106.453125 42.273438 C 106.199219 42.160156 105.910156 42.066406 105.585938 41.980469 L 104.527344 41.6875 C 103.808594 41.492188 103.238281 41.203125 102.820312 40.824219 C 102.398438 40.441406 102.191406 39.9375 102.191406 39.3125 C 102.191406 38.792969 102.332031 38.339844 102.609375 37.953125 C 102.890625 37.566406 103.273438 37.265625 103.75 37.050781 C 104.230469 36.832031 104.769531 36.726562 105.371094 36.726562 C 105.976562 36.726562 106.515625 36.832031 106.984375 37.046875 C 107.449219 37.261719 107.816406 37.554688 108.085938 37.929688 C 108.355469 38.300781 108.496094 38.730469 108.503906 39.214844 L 107.199219 39.214844 Z M 107.199219 39.210938 "/>
<path style=" stroke:none;fill-rule:nonzero;fill:rgb(19.607843%,73.725492%,50.588238%);fill-opacity:1;" d="M 123.222656 45.851562 L 123.222656 36.847656 L 128.851562 36.847656 L 128.851562 38.015625 L 124.578125 38.015625 L 124.578125 40.761719 L 128.554688 40.761719 L 128.554688 41.925781 L 124.578125 41.925781 L 124.578125 44.679688 L 128.902344 44.679688 L 128.902344 45.851562 Z M 123.222656 45.851562 "/>
<path style=" stroke:none;fill-rule:nonzero;fill:rgb(19.607843%,73.725492%,50.588238%);fill-opacity:1;" d="M 143.640625 45.851562 L 143.640625 36.847656 L 146.839844 36.847656 C 147.535156 36.847656 148.113281 36.96875 148.570312 37.210938 C 149.03125 37.449219 149.375 37.78125 149.605469 38.203125 C 149.832031 38.628906 149.945312 39.117188 149.945312 39.671875 C 149.945312 40.226562 149.832031 40.707031 149.601562 41.125 C 149.371094 41.542969 149.027344 41.867188 148.566406 42.097656 C 148.105469 42.328125 147.53125 42.445312 146.832031 42.445312 L 144.410156 42.445312 L 144.410156 41.277344 L 146.710938 41.277344 C 147.148438 41.277344 147.507812 41.214844 147.78125 41.085938 C 148.058594 40.960938 148.261719 40.777344 148.390625 40.539062 C 148.519531 40.296875 148.582031 40.007812 148.582031 39.671875 C 148.582031 39.335938 148.515625 39.039062 148.386719 38.789062 C 148.257812 38.539062 148.054688 38.347656 147.777344 38.214844 C 147.503906 38.082031 147.140625 38.015625 146.691406 38.015625 L 144.992188 38.015625 L 144.992188 45.851562 L 143.636719 45.851562 Z M 148.070312 41.789062 L 150.289062 45.851562 L 148.746094 45.851562 L 146.570312 41.789062 Z M 148.070312 41.789062 "/>
<path style=" stroke:none;fill-rule:nonzero;fill:rgb(19.607843%,73.725492%,50.588238%);fill-opacity:1;" d="M 165.132812 36.847656 L 167.632812 44.179688 L 167.734375 44.179688 L 170.230469 36.847656 L 171.695312 36.847656 L 168.464844 45.851562 L 166.902344 45.851562 L 163.671875 36.847656 L 165.136719 36.847656 Z M 165.132812 36.847656 "/>
<path style=" stroke:none;fill-rule:nonzero;fill:rgb(19.607843%,73.725492%,50.588238%);fill-opacity:1;" d="M 187.320312 36.847656 L 187.320312 45.851562 L 185.964844 45.851562 L 185.964844 36.847656 Z M 187.320312 36.847656 "/>
<path style=" stroke:none;fill-rule:nonzero;fill:rgb(19.607843%,73.725492%,50.588238%);fill-opacity:1;" d="M 209.722656 39.777344 L 208.355469 39.777344 C 208.300781 39.484375 208.203125 39.226562 208.0625 39.003906 C 207.917969 38.78125 207.742188 38.589844 207.535156 38.4375 C 207.328125 38.28125 207.097656 38.164062 206.839844 38.082031 C 206.585938 38.003906 206.316406 37.964844 206.027344 37.964844 C 205.511719 37.964844 205.046875 38.09375 204.640625 38.355469 C 204.234375 38.617188 203.910156 39 203.675781 39.503906 C 203.441406 40.007812 203.324219 40.621094 203.324219 41.347656 C 203.324219 42.074219 203.441406 42.699219 203.675781 43.203125 C 203.910156 43.707031 204.234375 44.089844 204.644531 44.347656 C 205.050781 44.601562 205.511719 44.734375 206.023438 44.734375 C 206.304688 44.734375 206.578125 44.695312 206.832031 44.617188 C 207.085938 44.539062 207.320312 44.421875 207.527344 44.269531 C 207.734375 44.117188 207.910156 43.933594 208.054688 43.710938 C 208.199219 43.488281 208.300781 43.234375 208.355469 42.949219 L 209.722656 42.953125 C 209.648438 43.394531 209.507812 43.800781 209.300781 44.171875 C 209.089844 44.542969 208.824219 44.859375 208.496094 45.128906 C 208.171875 45.394531 207.800781 45.605469 207.382812 45.75 C 206.964844 45.898438 206.507812 45.96875 206.015625 45.96875 C 205.238281 45.96875 204.546875 45.785156 203.9375 45.414062 C 203.328125 45.042969 202.851562 44.511719 202.5 43.820312 C 202.152344 43.128906 201.976562 42.304688 201.976562 41.347656 C 201.976562 40.390625 202.152344 39.558594 202.503906 38.871094 C 202.855469 38.179688 203.332031 37.648438 203.941406 37.277344 C 204.546875 36.910156 205.238281 36.722656 206.015625 36.722656 C 206.492188 36.722656 206.9375 36.789062 207.347656 36.925781 C 207.761719 37.0625 208.136719 37.261719 208.464844 37.523438 C 208.796875 37.789062 209.070312 38.105469 209.285156 38.484375 C 209.5 38.859375 209.648438 39.289062 209.722656 39.773438 Z M 209.722656 39.777344 "/>
<path style=" stroke:none;fill-rule:nonzero;fill:rgb(19.607843%,73.725492%,50.588238%);fill-opacity:1;" d="M 224.320312 45.851562 L 224.320312 36.847656 L 229.949219 36.847656 L 229.949219 38.015625 L 225.675781 38.015625 L 225.675781 40.761719 L 229.652344 40.761719 L 229.652344 41.925781 L 225.675781 41.925781 L 225.675781 44.679688 L 230 44.679688 L 230 45.851562 Z M 224.320312 45.851562 "/>
</g>
</svg>
